<mxfile host="Electron" agent="Mozilla/5.0 (Macintosh; Intel Mac OS X 10_15_7) AppleWebKit/537.36 (KHTML, like Gecko) draw.io/27.0.9 Chrome/134.0.6998.205 Electron/35.4.0 Safari/537.36" version="27.0.9">
  <diagram name="Pagina-1" id="ZNBf9-4mPVZ-RFVlRsW8">
    <mxGraphModel dx="1996" dy="623" grid="1" gridSize="10" guides="1" tooltips="1" connect="1" arrows="1" fold="1" page="1" pageScale="1" pageWidth="827" pageHeight="1169" math="0" shadow="0">
      <root>
        <mxCell id="0" />
        <mxCell id="1" parent="0" />
        <mxCell id="i0WB8sMOR8vB-OKBG6ua-6" style="edgeStyle=orthogonalEdgeStyle;rounded=0;orthogonalLoop=1;jettySize=auto;html=1;exitX=0.5;exitY=1;exitDx=0;exitDy=0;" parent="1" source="i0WB8sMOR8vB-OKBG6ua-3" target="i0WB8sMOR8vB-OKBG6ua-5" edge="1">
          <mxGeometry relative="1" as="geometry" />
        </mxCell>
        <mxCell id="i0WB8sMOR8vB-OKBG6ua-3" value="Start" style="rounded=1;whiteSpace=wrap;html=1;" parent="1" vertex="1">
          <mxGeometry x="370" y="100" width="120" height="60" as="geometry" />
        </mxCell>
        <mxCell id="i0WB8sMOR8vB-OKBG6ua-4" value="End" style="rounded=1;whiteSpace=wrap;html=1;" parent="1" vertex="1">
          <mxGeometry x="-450" y="1580" width="120" height="60" as="geometry" />
        </mxCell>
        <mxCell id="i0WB8sMOR8vB-OKBG6ua-8" style="edgeStyle=orthogonalEdgeStyle;rounded=0;orthogonalLoop=1;jettySize=auto;html=1;entryX=0.5;entryY=0;entryDx=0;entryDy=0;" parent="1" source="i0WB8sMOR8vB-OKBG6ua-5" target="i0WB8sMOR8vB-OKBG6ua-7" edge="1">
          <mxGeometry relative="1" as="geometry" />
        </mxCell>
        <mxCell id="i0WB8sMOR8vB-OKBG6ua-5" value="Welkom bij het spel Lingo" style="rounded=0;whiteSpace=wrap;html=1;" parent="1" vertex="1">
          <mxGeometry x="370" y="200" width="120" height="60" as="geometry" />
        </mxCell>
        <mxCell id="i0WB8sMOR8vB-OKBG6ua-9" style="edgeStyle=orthogonalEdgeStyle;rounded=0;orthogonalLoop=1;jettySize=auto;html=1;exitX=0.5;exitY=1;exitDx=0;exitDy=0;entryX=0.5;entryY=0;entryDx=0;entryDy=0;" parent="1" source="i0WB8sMOR8vB-OKBG6ua-7" target="i0WB8sMOR8vB-OKBG6ua-10" edge="1">
          <mxGeometry relative="1" as="geometry">
            <mxPoint x="430.2857142857142" y="420" as="targetPoint" />
            <Array as="points" />
          </mxGeometry>
        </mxCell>
        <mxCell id="i0WB8sMOR8vB-OKBG6ua-7" value="Voer de namen van {teams[I]} &amp;nbsp;in:" style="shape=parallelogram;perimeter=parallelogramPerimeter;whiteSpace=wrap;html=1;fixedSize=1;" parent="1" vertex="1">
          <mxGeometry x="360" y="300" width="140" height="60" as="geometry" />
        </mxCell>
        <mxCell id="i0WB8sMOR8vB-OKBG6ua-17" value="True" style="edgeStyle=orthogonalEdgeStyle;rounded=0;orthogonalLoop=1;jettySize=auto;html=1;exitX=0.5;exitY=1;exitDx=0;exitDy=0;" parent="1" edge="1">
          <mxGeometry relative="1" as="geometry">
            <mxPoint x="429.71" y="490" as="sourcePoint" />
            <mxPoint x="430" y="620" as="targetPoint" />
          </mxGeometry>
        </mxCell>
        <mxCell id="i0WB8sMOR8vB-OKBG6ua-10" value="2 spelers per team?" style="rhombus;whiteSpace=wrap;html=1;" parent="1" vertex="1">
          <mxGeometry x="385" y="410" width="90" height="90" as="geometry" />
        </mxCell>
        <mxCell id="i0WB8sMOR8vB-OKBG6ua-12" value="Graag voer twee namen per team" style="rounded=0;whiteSpace=wrap;html=1;" parent="1" vertex="1">
          <mxGeometry x="200" y="370" width="120" height="60" as="geometry" />
        </mxCell>
        <mxCell id="i0WB8sMOR8vB-OKBG6ua-15" value="False" style="edgeStyle=elbowEdgeStyle;elbow=vertical;endArrow=classic;html=1;curved=0;rounded=0;endSize=8;startSize=8;exitX=0;exitY=0.5;exitDx=0;exitDy=0;" parent="1" source="i0WB8sMOR8vB-OKBG6ua-10" edge="1">
          <mxGeometry width="50" height="50" relative="1" as="geometry">
            <mxPoint x="374.9999999999998" y="454.54999999999995" as="sourcePoint" />
            <mxPoint x="253.51" y="430" as="targetPoint" />
            <Array as="points">
              <mxPoint x="323.51" y="460" />
            </Array>
          </mxGeometry>
        </mxCell>
        <mxCell id="i0WB8sMOR8vB-OKBG6ua-16" value="" style="edgeStyle=elbowEdgeStyle;elbow=horizontal;endArrow=classic;html=1;curved=0;rounded=0;endSize=8;startSize=8;exitX=0.5;exitY=0;exitDx=0;exitDy=0;" parent="1" source="i0WB8sMOR8vB-OKBG6ua-12" target="i0WB8sMOR8vB-OKBG6ua-7" edge="1">
          <mxGeometry width="50" height="50" relative="1" as="geometry">
            <mxPoint x="250" y="355" as="sourcePoint" />
            <mxPoint x="300" y="305" as="targetPoint" />
            <Array as="points">
              <mxPoint x="260" y="330" />
            </Array>
          </mxGeometry>
        </mxCell>
        <mxCell id="i0WB8sMOR8vB-OKBG6ua-21" style="edgeStyle=orthogonalEdgeStyle;rounded=0;orthogonalLoop=1;jettySize=auto;html=1;entryX=0.5;entryY=0;entryDx=0;entryDy=0;" parent="1" source="i0WB8sMOR8vB-OKBG6ua-19" target="i0WB8sMOR8vB-OKBG6ua-20" edge="1">
          <mxGeometry relative="1" as="geometry" />
        </mxCell>
        <mxCell id="i0WB8sMOR8vB-OKBG6ua-19" value="teams[beurt] start zijn &amp;nbsp;5 pogingen per woord" style="rounded=0;whiteSpace=wrap;html=1;" parent="1" vertex="1">
          <mxGeometry x="370" y="620" width="120" height="60" as="geometry" />
        </mxCell>
        <mxCell id="i0WB8sMOR8vB-OKBG6ua-22" value="False" style="edgeStyle=orthogonalEdgeStyle;rounded=0;orthogonalLoop=1;jettySize=auto;html=1;" parent="1" source="i0WB8sMOR8vB-OKBG6ua-20" edge="1">
          <mxGeometry relative="1" as="geometry">
            <mxPoint x="300" y="760" as="targetPoint" />
          </mxGeometry>
        </mxCell>
        <mxCell id="VHKo1Bsk1Gj5ykGCg4VP-37" style="edgeStyle=orthogonalEdgeStyle;rounded=0;orthogonalLoop=1;jettySize=auto;html=1;exitX=0.5;exitY=1;exitDx=0;exitDy=0;entryX=0.5;entryY=0;entryDx=0;entryDy=0;" parent="1" source="i0WB8sMOR8vB-OKBG6ua-20" target="VHKo1Bsk1Gj5ykGCg4VP-22" edge="1">
          <mxGeometry relative="1" as="geometry" />
        </mxCell>
        <mxCell id="VHKo1Bsk1Gj5ykGCg4VP-39" value="True" style="edgeLabel;html=1;align=center;verticalAlign=middle;resizable=0;points=[];" parent="VHKo1Bsk1Gj5ykGCg4VP-37" vertex="1" connectable="0">
          <mxGeometry x="-0.4381" relative="1" as="geometry">
            <mxPoint as="offset" />
          </mxGeometry>
        </mxCell>
        <mxCell id="i0WB8sMOR8vB-OKBG6ua-20" value="woord == geraden" style="rhombus;whiteSpace=wrap;html=1;" parent="1" vertex="1">
          <mxGeometry x="390" y="720" width="80" height="80" as="geometry" />
        </mxCell>
        <mxCell id="VHKo1Bsk1Gj5ykGCg4VP-2" style="edgeStyle=orthogonalEdgeStyle;rounded=0;orthogonalLoop=1;jettySize=auto;html=1;exitX=0;exitY=0.5;exitDx=0;exitDy=0;" parent="1" source="VHKo1Bsk1Gj5ykGCg4VP-1" edge="1">
          <mxGeometry relative="1" as="geometry">
            <mxPoint x="120" y="760" as="targetPoint" />
          </mxGeometry>
        </mxCell>
        <mxCell id="VHKo1Bsk1Gj5ykGCg4VP-1" value="foutOpRij += 1" style="rounded=0;whiteSpace=wrap;html=1;" parent="1" vertex="1">
          <mxGeometry x="210" y="740" width="90" height="40" as="geometry" />
        </mxCell>
        <mxCell id="VHKo1Bsk1Gj5ykGCg4VP-5" value="True" style="edgeStyle=orthogonalEdgeStyle;rounded=0;orthogonalLoop=1;jettySize=auto;html=1;exitX=0.5;exitY=1;exitDx=0;exitDy=0;" parent="1" source="VHKo1Bsk1Gj5ykGCg4VP-3" target="VHKo1Bsk1Gj5ykGCg4VP-4" edge="1">
          <mxGeometry relative="1" as="geometry" />
        </mxCell>
        <mxCell id="VHKo1Bsk1Gj5ykGCg4VP-6" value="False" style="edgeStyle=orthogonalEdgeStyle;rounded=0;orthogonalLoop=1;jettySize=auto;html=1;exitX=0;exitY=0.5;exitDx=0;exitDy=0;" parent="1" source="VHKo1Bsk1Gj5ykGCg4VP-3" edge="1">
          <mxGeometry relative="1" as="geometry">
            <mxPoint x="-70" y="759.6470588235295" as="targetPoint" />
          </mxGeometry>
        </mxCell>
        <mxCell id="VHKo1Bsk1Gj5ykGCg4VP-3" value="foutOpRij&amp;nbsp;&lt;div&gt;== 3&lt;/div&gt;" style="rhombus;whiteSpace=wrap;html=1;" parent="1" vertex="1">
          <mxGeometry x="40" y="720" width="80" height="80" as="geometry" />
        </mxCell>
        <mxCell id="IML32SDbF7kIKqqtTBHj-12" style="edgeStyle=orthogonalEdgeStyle;rounded=0;orthogonalLoop=1;jettySize=auto;html=1;entryX=1;entryY=0.5;entryDx=0;entryDy=0;" parent="1" source="VHKo1Bsk1Gj5ykGCg4VP-4" target="IML32SDbF7kIKqqtTBHj-1" edge="1">
          <mxGeometry relative="1" as="geometry">
            <Array as="points">
              <mxPoint x="80" y="1080" />
            </Array>
          </mxGeometry>
        </mxCell>
        <mxCell id="VHKo1Bsk1Gj5ykGCg4VP-4" value="teams[beurt] heeft 3 woorden achter elkaar niet geraden. dat is een verlies" style="rounded=0;whiteSpace=wrap;html=1;" parent="1" vertex="1">
          <mxGeometry x="20" y="870" width="120" height="60" as="geometry" />
        </mxCell>
        <mxCell id="VHKo1Bsk1Gj5ykGCg4VP-9" value="False" style="edgeStyle=orthogonalEdgeStyle;rounded=0;orthogonalLoop=1;jettySize=auto;html=1;" parent="1" source="VHKo1Bsk1Gj5ykGCg4VP-8" edge="1">
          <mxGeometry relative="1" as="geometry">
            <mxPoint x="-230" y="760" as="targetPoint" />
          </mxGeometry>
        </mxCell>
        <mxCell id="VHKo1Bsk1Gj5ykGCg4VP-10" value="True" style="edgeStyle=orthogonalEdgeStyle;rounded=0;orthogonalLoop=1;jettySize=auto;html=1;exitX=0.5;exitY=0;exitDx=0;exitDy=0;" parent="1" source="VHKo1Bsk1Gj5ykGCg4VP-8" edge="1">
          <mxGeometry relative="1" as="geometry">
            <mxPoint x="-110.52941176470586" y="660" as="targetPoint" />
          </mxGeometry>
        </mxCell>
        <mxCell id="VHKo1Bsk1Gj5ykGCg4VP-8" value="letters[i]&lt;div&gt;== woord[i]&lt;/div&gt;" style="rhombus;whiteSpace=wrap;html=1;" parent="1" vertex="1">
          <mxGeometry x="-150" y="720" width="80" height="80" as="geometry" />
        </mxCell>
        <mxCell id="VHKo1Bsk1Gj5ykGCg4VP-12" value="Letters worden getoond&amp;nbsp;&lt;div&gt;met gele kleur&lt;/div&gt;" style="rounded=0;whiteSpace=wrap;html=1;" parent="1" vertex="1">
          <mxGeometry x="-350" y="730" width="120" height="60" as="geometry" />
        </mxCell>
        <mxCell id="VHKo1Bsk1Gj5ykGCg4VP-13" value="Letters worden getoond&amp;nbsp;&lt;div&gt;met groen kleur&amp;nbsp;&lt;/div&gt;" style="rounded=0;whiteSpace=wrap;html=1;" parent="1" vertex="1">
          <mxGeometry x="-170" y="600" width="120" height="60" as="geometry" />
        </mxCell>
        <mxCell id="VHKo1Bsk1Gj5ykGCg4VP-14" value="" style="edgeStyle=segmentEdgeStyle;endArrow=classic;html=1;curved=0;rounded=0;endSize=8;startSize=8;entryX=0;entryY=0.75;entryDx=0;entryDy=0;" parent="1" target="i0WB8sMOR8vB-OKBG6ua-19" edge="1">
          <mxGeometry width="50" height="50" relative="1" as="geometry">
            <mxPoint x="-50" y="630" as="sourcePoint" />
            <mxPoint y="580" as="targetPoint" />
            <Array as="points">
              <mxPoint x="330" y="630" />
              <mxPoint x="330" y="665" />
            </Array>
          </mxGeometry>
        </mxCell>
        <mxCell id="VHKo1Bsk1Gj5ykGCg4VP-16" value="" style="endArrow=classic;html=1;rounded=0;exitX=0.5;exitY=0;exitDx=0;exitDy=0;entryX=0;entryY=0.75;entryDx=0;entryDy=0;" parent="1" source="VHKo1Bsk1Gj5ykGCg4VP-12" target="i0WB8sMOR8vB-OKBG6ua-19" edge="1">
          <mxGeometry width="50" height="50" relative="1" as="geometry">
            <mxPoint x="-300" y="640" as="sourcePoint" />
            <mxPoint x="-250" y="590" as="targetPoint" />
            <Array as="points">
              <mxPoint x="-290" y="570" />
              <mxPoint x="110" y="570" />
              <mxPoint x="330" y="570" />
              <mxPoint x="330" y="665" />
            </Array>
          </mxGeometry>
        </mxCell>
        <mxCell id="VHKo1Bsk1Gj5ykGCg4VP-44" style="edgeStyle=orthogonalEdgeStyle;rounded=0;orthogonalLoop=1;jettySize=auto;html=1;exitX=0.5;exitY=1;exitDx=0;exitDy=0;" parent="1" source="VHKo1Bsk1Gj5ykGCg4VP-17" edge="1">
          <mxGeometry relative="1" as="geometry">
            <mxPoint x="430" y="1210" as="targetPoint" />
          </mxGeometry>
        </mxCell>
        <mxCell id="VHKo1Bsk1Gj5ykGCg4VP-17" value="Teams[beurt] mag 2 ballen pakken van de ballenbak&amp;nbsp;" style="rounded=0;whiteSpace=wrap;html=1;" parent="1" vertex="1">
          <mxGeometry x="370" y="1070" width="120" height="60" as="geometry" />
        </mxCell>
        <mxCell id="VHKo1Bsk1Gj5ykGCg4VP-43" style="edgeStyle=orthogonalEdgeStyle;rounded=0;orthogonalLoop=1;jettySize=auto;html=1;exitX=0.5;exitY=1;exitDx=0;exitDy=0;entryX=0.5;entryY=0;entryDx=0;entryDy=0;" parent="1" source="VHKo1Bsk1Gj5ykGCg4VP-22" target="VHKo1Bsk1Gj5ykGCg4VP-24" edge="1">
          <mxGeometry relative="1" as="geometry" />
        </mxCell>
        <mxCell id="VHKo1Bsk1Gj5ykGCg4VP-22" value="goedGeraden += 1" style="rounded=0;whiteSpace=wrap;html=1;" parent="1" vertex="1">
          <mxGeometry x="370" y="840" width="120" height="60" as="geometry" />
        </mxCell>
        <mxCell id="VHKo1Bsk1Gj5ykGCg4VP-30" value="" style="edgeStyle=orthogonalEdgeStyle;rounded=0;orthogonalLoop=1;jettySize=auto;html=1;" parent="1" source="VHKo1Bsk1Gj5ykGCg4VP-24" target="VHKo1Bsk1Gj5ykGCg4VP-29" edge="1">
          <mxGeometry relative="1" as="geometry" />
        </mxCell>
        <mxCell id="VHKo1Bsk1Gj5ykGCg4VP-32" value="True" style="edgeLabel;html=1;align=center;verticalAlign=middle;resizable=0;points=[];" parent="VHKo1Bsk1Gj5ykGCg4VP-30" vertex="1" connectable="0">
          <mxGeometry x="-0.251" y="-2" relative="1" as="geometry">
            <mxPoint as="offset" />
          </mxGeometry>
        </mxCell>
        <mxCell id="VHKo1Bsk1Gj5ykGCg4VP-42" value="False" style="edgeStyle=orthogonalEdgeStyle;rounded=0;orthogonalLoop=1;jettySize=auto;html=1;exitX=0.5;exitY=1;exitDx=0;exitDy=0;entryX=0.5;entryY=0;entryDx=0;entryDy=0;" parent="1" source="VHKo1Bsk1Gj5ykGCg4VP-24" target="VHKo1Bsk1Gj5ykGCg4VP-17" edge="1">
          <mxGeometry relative="1" as="geometry" />
        </mxCell>
        <mxCell id="VHKo1Bsk1Gj5ykGCg4VP-24" value="teamsData[beurt]&lt;div&gt;[&quot;goedGeraden&quot;]&lt;/div&gt;&lt;div&gt;== 10&lt;/div&gt;" style="rhombus;whiteSpace=wrap;html=1;" parent="1" vertex="1">
          <mxGeometry x="380" y="930" width="100" height="80" as="geometry" />
        </mxCell>
        <mxCell id="IML32SDbF7kIKqqtTBHj-13" style="edgeStyle=orthogonalEdgeStyle;rounded=0;orthogonalLoop=1;jettySize=auto;html=1;entryX=1;entryY=0.5;entryDx=0;entryDy=0;" parent="1" source="VHKo1Bsk1Gj5ykGCg4VP-29" target="IML32SDbF7kIKqqtTBHj-1" edge="1">
          <mxGeometry relative="1" as="geometry">
            <Array as="points">
              <mxPoint x="250" y="1080" />
            </Array>
          </mxGeometry>
        </mxCell>
        <mxCell id="VHKo1Bsk1Gj5ykGCg4VP-29" value="Teams[beurt]&lt;div&gt;heeft gewonnen met 10 woorden raden&lt;/div&gt;" style="whiteSpace=wrap;html=1;" parent="1" vertex="1">
          <mxGeometry x="190" y="940" width="120" height="60" as="geometry" />
        </mxCell>
        <mxCell id="VHKo1Bsk1Gj5ykGCg4VP-46" value="True" style="edgeStyle=orthogonalEdgeStyle;rounded=0;orthogonalLoop=1;jettySize=auto;html=1;exitX=0;exitY=0.5;exitDx=0;exitDy=0;" parent="1" source="VHKo1Bsk1Gj5ykGCg4VP-45" edge="1">
          <mxGeometry relative="1" as="geometry">
            <mxPoint x="310" y="1249.857142857143" as="targetPoint" />
          </mxGeometry>
        </mxCell>
        <mxCell id="VHKo1Bsk1Gj5ykGCg4VP-58" value="False" style="edgeStyle=orthogonalEdgeStyle;rounded=0;orthogonalLoop=1;jettySize=auto;html=1;exitX=0.5;exitY=1;exitDx=0;exitDy=0;" parent="1" source="VHKo1Bsk1Gj5ykGCg4VP-45" edge="1">
          <mxGeometry relative="1" as="geometry">
            <mxPoint x="430" y="1390" as="targetPoint" />
          </mxGeometry>
        </mxCell>
        <mxCell id="VHKo1Bsk1Gj5ykGCg4VP-45" value="bal== rood" style="rhombus;whiteSpace=wrap;html=1;" parent="1" vertex="1">
          <mxGeometry x="390" y="1210" width="80" height="80" as="geometry" />
        </mxCell>
        <mxCell id="VHKo1Bsk1Gj5ykGCg4VP-54" value="True" style="edgeStyle=orthogonalEdgeStyle;rounded=0;orthogonalLoop=1;jettySize=auto;html=1;exitX=0;exitY=0.5;exitDx=0;exitDy=0;" parent="1" source="VHKo1Bsk1Gj5ykGCg4VP-49" edge="1">
          <mxGeometry relative="1" as="geometry">
            <mxPoint x="-60" y="1249" as="targetPoint" />
          </mxGeometry>
        </mxCell>
        <mxCell id="VHKo1Bsk1Gj5ykGCg4VP-49" value="teamsData[beurt]&amp;nbsp;&lt;div&gt;[&quot;rood&quot;] == 3&lt;/div&gt;" style="rhombus;whiteSpace=wrap;html=1;" parent="1" vertex="1">
          <mxGeometry x="10" y="1197.01" width="120" height="104.75" as="geometry" />
        </mxCell>
        <mxCell id="VHKo1Bsk1Gj5ykGCg4VP-53" style="edgeStyle=orthogonalEdgeStyle;rounded=0;orthogonalLoop=1;jettySize=auto;html=1;exitX=0;exitY=0.5;exitDx=0;exitDy=0;entryX=1;entryY=0.5;entryDx=0;entryDy=0;" parent="1" source="VHKo1Bsk1Gj5ykGCg4VP-52" target="VHKo1Bsk1Gj5ykGCg4VP-49" edge="1">
          <mxGeometry relative="1" as="geometry" />
        </mxCell>
        <mxCell id="VHKo1Bsk1Gj5ykGCg4VP-52" value="&lt;div&gt;teamsData[beurt]&lt;/div&gt;&lt;div&gt;[&#39;rood&#39;] += 1&lt;/div&gt;" style="rounded=0;whiteSpace=wrap;html=1;" parent="1" vertex="1">
          <mxGeometry x="190" y="1219.38" width="120" height="60" as="geometry" />
        </mxCell>
        <mxCell id="IML32SDbF7kIKqqtTBHj-9" style="edgeStyle=orthogonalEdgeStyle;rounded=0;orthogonalLoop=1;jettySize=auto;html=1;entryX=1;entryY=0.5;entryDx=0;entryDy=0;" parent="1" source="VHKo1Bsk1Gj5ykGCg4VP-55" target="IML32SDbF7kIKqqtTBHj-1" edge="1">
          <mxGeometry relative="1" as="geometry">
            <Array as="points">
              <mxPoint x="-120" y="1080" />
            </Array>
          </mxGeometry>
        </mxCell>
        <mxCell id="VHKo1Bsk1Gj5ykGCg4VP-55" value="teams[beurt] heeft verloren met 3 rode ballen" style="rounded=0;whiteSpace=wrap;html=1;" parent="1" vertex="1">
          <mxGeometry x="-180" y="1219.38" width="120" height="60" as="geometry" />
        </mxCell>
        <mxCell id="VHKo1Bsk1Gj5ykGCg4VP-67" value="False" style="edgeStyle=orthogonalEdgeStyle;rounded=0;orthogonalLoop=1;jettySize=auto;html=1;" parent="1" source="VHKo1Bsk1Gj5ykGCg4VP-59" edge="1">
          <mxGeometry relative="1" as="geometry">
            <mxPoint x="430" y="1600" as="targetPoint" />
          </mxGeometry>
        </mxCell>
        <mxCell id="VHKo1Bsk1Gj5ykGCg4VP-76" value="True" style="edgeStyle=orthogonalEdgeStyle;rounded=0;orthogonalLoop=1;jettySize=auto;html=1;exitX=0;exitY=0.5;exitDx=0;exitDy=0;entryX=1;entryY=0.5;entryDx=0;entryDy=0;" parent="1" source="VHKo1Bsk1Gj5ykGCg4VP-59" target="VHKo1Bsk1Gj5ykGCg4VP-77" edge="1">
          <mxGeometry relative="1" as="geometry">
            <mxPoint x="340" y="1430" as="targetPoint" />
          </mxGeometry>
        </mxCell>
        <mxCell id="VHKo1Bsk1Gj5ykGCg4VP-59" value="bal == groen" style="rhombus;whiteSpace=wrap;html=1;" parent="1" vertex="1">
          <mxGeometry x="390" y="1390" width="80" height="80" as="geometry" />
        </mxCell>
        <mxCell id="VHKo1Bsk1Gj5ykGCg4VP-65" value="True" style="edgeStyle=orthogonalEdgeStyle;rounded=0;orthogonalLoop=1;jettySize=auto;html=1;exitX=0;exitY=0.5;exitDx=0;exitDy=0;" parent="1" source="VHKo1Bsk1Gj5ykGCg4VP-64" edge="1">
          <mxGeometry relative="1" as="geometry">
            <mxPoint x="-80" y="1430.235294117647" as="targetPoint" />
          </mxGeometry>
        </mxCell>
        <mxCell id="VHKo1Bsk1Gj5ykGCg4VP-64" value="teamsData[beurt]&lt;div&gt;[&quot;groen&quot;] == 3&lt;/div&gt;" style="rhombus;whiteSpace=wrap;html=1;" parent="1" vertex="1">
          <mxGeometry x="10" y="1390" width="120" height="80" as="geometry" />
        </mxCell>
        <mxCell id="IML32SDbF7kIKqqtTBHj-10" style="edgeStyle=orthogonalEdgeStyle;rounded=0;orthogonalLoop=1;jettySize=auto;html=1;exitX=0;exitY=0.5;exitDx=0;exitDy=0;entryX=1;entryY=0.5;entryDx=0;entryDy=0;" parent="1" source="VHKo1Bsk1Gj5ykGCg4VP-66" target="IML32SDbF7kIKqqtTBHj-1" edge="1">
          <mxGeometry relative="1" as="geometry">
            <Array as="points">
              <mxPoint x="-250" y="1430" />
              <mxPoint x="-250" y="1080" />
            </Array>
          </mxGeometry>
        </mxCell>
        <mxCell id="VHKo1Bsk1Gj5ykGCg4VP-66" value="teams[beurt] heeft gewonnen met 3 groene ballen" style="rounded=0;whiteSpace=wrap;html=1;" parent="1" vertex="1">
          <mxGeometry x="-180" y="1400" width="120" height="60" as="geometry" />
        </mxCell>
        <mxCell id="VHKo1Bsk1Gj5ykGCg4VP-71" style="edgeStyle=orthogonalEdgeStyle;rounded=0;orthogonalLoop=1;jettySize=auto;html=1;exitX=0.5;exitY=1;exitDx=0;exitDy=0;entryX=0.5;entryY=0;entryDx=0;entryDy=0;" parent="1" source="VHKo1Bsk1Gj5ykGCg4VP-69" target="VHKo1Bsk1Gj5ykGCg4VP-70" edge="1">
          <mxGeometry relative="1" as="geometry" />
        </mxCell>
        <mxCell id="VHKo1Bsk1Gj5ykGCg4VP-69" value="markeer het nummer op de bingokaart" style="rounded=0;whiteSpace=wrap;html=1;" parent="1" vertex="1">
          <mxGeometry x="370" y="1600" width="120" height="60" as="geometry" />
        </mxCell>
        <mxCell id="VHKo1Bsk1Gj5ykGCg4VP-72" value="True" style="edgeStyle=orthogonalEdgeStyle;rounded=0;orthogonalLoop=1;jettySize=auto;html=1;exitX=0;exitY=0.5;exitDx=0;exitDy=0;" parent="1" source="VHKo1Bsk1Gj5ykGCg4VP-70" edge="1">
          <mxGeometry relative="1" as="geometry">
            <mxPoint x="270" y="1745.5294117647059" as="targetPoint" />
          </mxGeometry>
        </mxCell>
        <mxCell id="VHKo1Bsk1Gj5ykGCg4VP-70" value="heeft team een bingo_lijn?" style="rhombus;whiteSpace=wrap;html=1;" parent="1" vertex="1">
          <mxGeometry x="375" y="1700" width="110" height="90" as="geometry" />
        </mxCell>
        <mxCell id="IML32SDbF7kIKqqtTBHj-11" style="edgeStyle=orthogonalEdgeStyle;rounded=0;orthogonalLoop=1;jettySize=auto;html=1;entryX=1;entryY=0.5;entryDx=0;entryDy=0;" parent="1" source="VHKo1Bsk1Gj5ykGCg4VP-73" target="IML32SDbF7kIKqqtTBHj-1" edge="1">
          <mxGeometry relative="1" as="geometry">
            <Array as="points">
              <mxPoint x="-250" y="1745" />
              <mxPoint x="-250" y="1080" />
            </Array>
          </mxGeometry>
        </mxCell>
        <mxCell id="VHKo1Bsk1Gj5ykGCg4VP-73" value="teams[beurt] heeft gewonnen met een bingo lijn." style="rounded=0;whiteSpace=wrap;html=1;" parent="1" vertex="1">
          <mxGeometry x="150" y="1717.5" width="120" height="55" as="geometry" />
        </mxCell>
        <mxCell id="VHKo1Bsk1Gj5ykGCg4VP-78" style="edgeStyle=orthogonalEdgeStyle;rounded=0;orthogonalLoop=1;jettySize=auto;html=1;entryX=1;entryY=0.5;entryDx=0;entryDy=0;" parent="1" source="VHKo1Bsk1Gj5ykGCg4VP-77" target="VHKo1Bsk1Gj5ykGCg4VP-64" edge="1">
          <mxGeometry relative="1" as="geometry" />
        </mxCell>
        <mxCell id="VHKo1Bsk1Gj5ykGCg4VP-77" value="teamsData[beurt]&lt;div&gt;[&#39;groen&#39;] +=1&lt;/div&gt;" style="rounded=0;whiteSpace=wrap;html=1;" parent="1" vertex="1">
          <mxGeometry x="190" y="1400" width="125" height="60" as="geometry" />
        </mxCell>
        <mxCell id="VHKo1Bsk1Gj5ykGCg4VP-79" value="Wissel van beurt" style="rounded=0;whiteSpace=wrap;html=1;" parent="1" vertex="1">
          <mxGeometry x="570" y="1400" width="120" height="60" as="geometry" />
        </mxCell>
        <mxCell id="VHKo1Bsk1Gj5ykGCg4VP-80" value="False" style="endArrow=classic;html=1;rounded=0;exitX=1;exitY=0.5;exitDx=0;exitDy=0;entryX=0.5;entryY=1;entryDx=0;entryDy=0;" parent="1" target="VHKo1Bsk1Gj5ykGCg4VP-79" edge="1">
          <mxGeometry width="50" height="50" relative="1" as="geometry">
            <mxPoint x="480" y="1745" as="sourcePoint" />
            <mxPoint x="655" y="1450" as="targetPoint" />
            <Array as="points">
              <mxPoint x="630" y="1745" />
            </Array>
          </mxGeometry>
        </mxCell>
        <mxCell id="VHKo1Bsk1Gj5ykGCg4VP-81" value="" style="endArrow=classic;html=1;rounded=0;entryX=1;entryY=0.5;entryDx=0;entryDy=0;exitX=0.5;exitY=0;exitDx=0;exitDy=0;" parent="1" source="VHKo1Bsk1Gj5ykGCg4VP-79" target="VHKo1Bsk1Gj5ykGCg4VP-17" edge="1">
          <mxGeometry width="50" height="50" relative="1" as="geometry">
            <mxPoint x="630" y="1390" as="sourcePoint" />
            <mxPoint x="630" y="1140" as="targetPoint" />
            <Array as="points">
              <mxPoint x="630" y="1100" />
            </Array>
          </mxGeometry>
        </mxCell>
        <mxCell id="IML32SDbF7kIKqqtTBHj-2" style="edgeStyle=orthogonalEdgeStyle;rounded=0;orthogonalLoop=1;jettySize=auto;html=1;entryX=0.5;entryY=0;entryDx=0;entryDy=0;" parent="1" source="IML32SDbF7kIKqqtTBHj-1" target="IML32SDbF7kIKqqtTBHj-3" edge="1">
          <mxGeometry relative="1" as="geometry">
            <mxPoint x="-390" y="1160" as="targetPoint" />
          </mxGeometry>
        </mxCell>
        <mxCell id="IML32SDbF7kIKqqtTBHj-1" value="Wil je nog een keer spelen?" style="shape=parallelogram;perimeter=parallelogramPerimeter;whiteSpace=wrap;html=1;fixedSize=1;" parent="1" vertex="1">
          <mxGeometry x="-460" y="1050" width="140" height="60" as="geometry" />
        </mxCell>
        <mxCell id="IML32SDbF7kIKqqtTBHj-4" value="False" style="edgeStyle=orthogonalEdgeStyle;rounded=0;orthogonalLoop=1;jettySize=auto;html=1;exitX=0.5;exitY=1;exitDx=0;exitDy=0;" parent="1" source="IML32SDbF7kIKqqtTBHj-3" edge="1">
          <mxGeometry relative="1" as="geometry">
            <mxPoint x="-389.4285714285711" y="1430" as="targetPoint" />
          </mxGeometry>
        </mxCell>
        <mxCell id="DmS2_cu8fJ3tF6P7srMJ-2" value="True" style="edgeStyle=orthogonalEdgeStyle;rounded=0;orthogonalLoop=1;jettySize=auto;html=1;exitX=0;exitY=0.5;exitDx=0;exitDy=0;entryX=0.5;entryY=1;entryDx=0;entryDy=0;" edge="1" parent="1" source="IML32SDbF7kIKqqtTBHj-3" target="DmS2_cu8fJ3tF6P7srMJ-1">
          <mxGeometry relative="1" as="geometry" />
        </mxCell>
        <mxCell id="IML32SDbF7kIKqqtTBHj-3" value="Vraag ==&lt;div&gt;ja&lt;/div&gt;" style="rhombus;whiteSpace=wrap;html=1;" parent="1" vertex="1">
          <mxGeometry x="-430" y="1169" width="80" height="80" as="geometry" />
        </mxCell>
        <mxCell id="IML32SDbF7kIKqqtTBHj-8" style="edgeStyle=orthogonalEdgeStyle;rounded=0;orthogonalLoop=1;jettySize=auto;html=1;entryX=0.5;entryY=0;entryDx=0;entryDy=0;" parent="1" source="IML32SDbF7kIKqqtTBHj-7" target="i0WB8sMOR8vB-OKBG6ua-4" edge="1">
          <mxGeometry relative="1" as="geometry" />
        </mxCell>
        <mxCell id="IML32SDbF7kIKqqtTBHj-7" value="Bednakt voor het spelen van lingo!" style="rounded=0;whiteSpace=wrap;html=1;" parent="1" vertex="1">
          <mxGeometry x="-450" y="1430" width="120" height="60" as="geometry" />
        </mxCell>
        <mxCell id="DmS2_cu8fJ3tF6P7srMJ-3" style="edgeStyle=orthogonalEdgeStyle;rounded=0;orthogonalLoop=1;jettySize=auto;html=1;entryX=0;entryY=0.5;entryDx=0;entryDy=0;exitX=0.5;exitY=0;exitDx=0;exitDy=0;" edge="1" parent="1" source="DmS2_cu8fJ3tF6P7srMJ-1">
          <mxGeometry relative="1" as="geometry">
            <mxPoint x="-620" y="410" as="sourcePoint" />
            <mxPoint x="250" y="160" as="targetPoint" />
            <Array as="points">
              <mxPoint x="-560" y="160" />
            </Array>
          </mxGeometry>
        </mxCell>
        <mxCell id="DmS2_cu8fJ3tF6P7srMJ-1" value="Data wordt gereset" style="rounded=0;whiteSpace=wrap;html=1;" vertex="1" parent="1">
          <mxGeometry x="-620" y="450" width="120" height="60" as="geometry" />
        </mxCell>
      </root>
    </mxGraphModel>
  </diagram>
</mxfile>
